<svg id="visual" viewBox="0 0 900 600" width="900" height="600" xmlns="http://www.w3.org/2000/svg" xmlns:xlink="http://www.w3.org/1999/xlink" version="1.1"><path d="M0 115L13.7 113C27.3 111 54.7 107 82 115C109.3 123 136.7 143 163.8 147C191 151 218 139 245.2 130C272.3 121 299.7 115 327 117C354.3 119 381.7 129 409 128C436.3 127 463.7 115 491 114C518.3 113 545.7 123 573 122C600.3 121 627.7 109 654.8 116C682 123 709 149 736.2 149C763.3 149 790.7 123 818 124C845.3 125 872.7 153 886.3 167L900 181L900 0L886.3 0C872.7 0 845.3 0 818 0C790.7 0 763.3 0 736.2 0C709 0 682 0 654.8 0C627.7 0 600.3 0 573 0C545.7 0 518.3 0 491 0C463.7 0 436.3 0 409 0C381.7 0 354.3 0 327 0C299.7 0 272.3 0 245.2 0C218 0 191 0 163.8 0C136.7 0 109.3 0 82 0C54.7 0 27.3 0 13.7 0L0 0Z" fill="#6198ff"></path><path d="M0 217L13.7 209C27.3 201 54.7 185 82 192C109.3 199 136.7 229 163.8 241C191 253 218 247 245.2 234C272.3 221 299.7 201 327 205C354.3 209 381.7 237 409 244C436.3 251 463.7 237 491 224C518.3 211 545.7 199 573 193C600.3 187 627.7 187 654.8 207C682 227 709 267 736.2 264C763.3 261 790.7 215 818 216C845.3 217 872.7 265 886.3 289L900 313L900 179L886.3 165C872.7 151 845.3 123 818 122C790.7 121 763.3 147 736.2 147C709 147 682 121 654.8 114C627.7 107 600.3 119 573 120C545.7 121 518.3 111 491 112C463.7 113 436.3 125 409 126C381.7 127 354.3 117 327 115C299.7 113 272.3 119 245.2 128C218 137 191 149 163.8 145C136.7 141 109.3 121 82 113C54.7 105 27.3 109 13.7 111L0 113Z" fill="#4385ff"></path><path d="M0 295L13.7 288C27.3 281 54.7 267 82 271C109.3 275 136.7 297 163.8 308C191 319 218 319 245.2 303C272.3 287 299.7 255 327 255C354.3 255 381.7 287 409 292C436.3 297 463.7 275 491 267C518.3 259 545.7 265 573 265C600.3 265 627.7 259 654.8 275C682 291 709 329 736.2 329C763.3 329 790.7 291 818 290C845.3 289 872.7 325 886.3 343L900 361L900 311L886.3 287C872.7 263 845.3 215 818 214C790.7 213 763.3 259 736.2 262C709 265 682 225 654.8 205C627.7 185 600.3 185 573 191C545.7 197 518.3 209 491 222C463.7 235 436.3 249 409 242C381.7 235 354.3 207 327 203C299.7 199 272.3 219 245.2 232C218 245 191 251 163.8 239C136.7 227 109.3 197 82 190C54.7 183 27.3 199 13.7 207L0 215Z" fill="#2071ff"></path><path d="M0 385L13.7 377C27.3 369 54.7 353 82 349C109.3 345 136.7 353 163.8 368C191 383 218 405 245.2 402C272.3 399 299.7 371 327 369C354.3 367 381.7 391 409 384C436.3 377 463.7 339 491 330C518.3 321 545.7 341 573 351C600.3 361 627.7 361 654.8 368C682 375 709 389 736.2 388C763.3 387 790.7 371 818 380C845.3 389 872.7 423 886.3 440L900 457L900 359L886.3 341C872.7 323 845.3 287 818 288C790.7 289 763.3 327 736.2 327C709 327 682 289 654.8 273C627.7 257 600.3 263 573 263C545.7 263 518.3 257 491 265C463.7 273 436.3 295 409 290C381.7 285 354.3 253 327 253C299.7 253 272.3 285 245.2 301C218 317 191 317 163.8 306C136.7 295 109.3 273 82 269C54.7 265 27.3 279 13.7 286L0 293Z" fill="#0061f1"></path><path d="M0 571L13.7 564C27.3 557 54.7 543 82 535C109.3 527 136.7 525 163.8 529C191 533 218 543 245.2 549C272.3 555 299.7 557 327 550C354.3 543 381.7 527 409 518C436.3 509 463.7 507 491 514C518.3 521 545.7 537 573 541C600.3 545 627.7 537 654.8 534C682 531 709 533 736.2 533C763.3 533 790.7 531 818 532C845.3 533 872.7 537 886.3 539L900 541L900 455L886.3 438C872.7 421 845.3 387 818 378C790.7 369 763.3 385 736.2 386C709 387 682 373 654.8 366C627.7 359 600.3 359 573 349C545.7 339 518.3 319 491 328C463.7 337 436.3 375 409 382C381.7 389 354.3 365 327 367C299.7 369 272.3 397 245.2 400C218 403 191 381 163.8 366C136.7 351 109.3 343 82 347C54.7 351 27.3 367 13.7 375L0 383Z" fill="#0056d6"></path><path d="M0 601L13.7 601C27.3 601 54.7 601 82 601C109.3 601 136.7 601 163.8 601C191 601 218 601 245.2 601C272.3 601 299.7 601 327 601C354.3 601 381.7 601 409 601C436.3 601 463.7 601 491 601C518.3 601 545.7 601 573 601C600.3 601 627.7 601 654.8 601C682 601 709 601 736.2 601C763.3 601 790.7 601 818 601C845.3 601 872.7 601 886.3 601L900 601L900 539L886.3 537C872.7 535 845.3 531 818 530C790.7 529 763.3 531 736.2 531C709 531 682 529 654.8 532C627.7 535 600.3 543 573 539C545.7 535 518.3 519 491 512C463.7 505 436.3 507 409 516C381.7 525 354.3 541 327 548C299.7 555 272.3 553 245.2 547C218 541 191 531 163.8 527C136.7 523 109.3 525 82 533C54.7 541 27.3 555 13.7 562L0 569Z" fill="#004cbb"></path></svg>